<?xml version="1.0" encoding="utf-8"?>
<!-- Generator: Adobe Illustrator 24.1.1, SVG Export Plug-In . SVG Version: 6.00 Build 0)  -->
<svg version="1.1" id="Layer_1" xmlns="http://www.w3.org/2000/svg" xmlns:xlink="http://www.w3.org/1999/xlink" x="0px" y="0px"
	 viewBox="0 0 512 512" style="enable-background:new 0 0 512 512;" xml:space="preserve">
<style type="text/css">
	.st0{fill:#333333;}
</style>
<g id="XMLID_1_">
	<path id="XMLID_5_" class="st0" d="M23.6,455.8h111.7V304H23.6V455.8z M105.4,370.8c5.5,0,9.4,3.9,9.4,9.4s-3.9,9.4-9.4,9.4
		c-5.5,0-9.4-3.9-9.4-9.4C96,374.8,99.9,370.8,105.4,370.8z"/>
	<path id="XMLID_8_" class="st0" d="M159.7,503.7v-23.6v-23.6v-177h-32.2h-15.7h-7.9H0V455v23.6v23.6h23.6v-23.6h111.7v23.6h24.4
		V503.7z M23.6,463.6h-7.9v-7.9V296.1h128.2v159.7v7.9h-7.9C136.1,463.6,23.6,463.6,23.6,463.6z"/>
	<path id="XMLID_11_" class="st0" d="M191.9,455.8h111.7V304H191.9V455.8z M280.8,370.8c5.5,0,9.4,3.9,9.4,9.4s-3.9,9.4-9.4,9.4
		s-9.4-3.9-9.4-9.4S276.1,370.8,280.8,370.8z"/>
	<path id="XMLID_14_" class="st0" d="M327.2,503.7v-23.6v-23.6v-177H232h-23.6h-15.7h-23.6V455v23.6v23.6h23.6v-23.6h111.7v23.6
		h22.8V503.7z M191.9,463.6H184v-7.9V296.1h128.2v159.7v7.9h-7.9C304.4,463.6,191.9,463.6,191.9,463.6z"/>
	<rect id="XMLID_15_" x="359.4" y="367.7" class="st0" width="128.2" height="88.1"/>
	<path id="XMLID_23_" class="st0" d="M479,271.7h-40.1c-4.7,0-7.9,3.9-7.9,7.9h-15.7c0-4.7-3.9-7.9-7.9-7.9h-40.1
		c-4.7,0-7.9,3.9-7.9,7.9h-23.6V455v23.6v23.6h23.6v-23.6h128.2v23.6h23.6v-23.6V455V279.6h-23.6C487.6,275.7,483.7,271.7,479,271.7
		z M458.5,308.7c0,5.5-3.9,9.4-9.4,9.4s-9.4-3.9-9.4-9.4c0-5.5,3.9-9.4,9.4-9.4C453.8,299.3,458.5,303.2,458.5,308.7z M479,336.2
		c2.4,0,3.9,1.6,3.9,3.9c0,2.4-1.6,3.9-3.9,3.9H367.3c-2.4,0-3.9-1.6-3.9-3.9c0-2.4,1.6-3.9,3.9-3.9H479z M418.4,308.7
		c0,5.5-3.9,9.4-9.4,9.4c-5.5,0-9.4-3.9-9.4-9.4c0-5.5,3.9-9.4,9.4-9.4C414.5,299.3,418.4,303.2,418.4,308.7z M368.9,299.3
		c5.5,0,9.4,3.9,9.4,9.4c0,5.5-3.9,9.4-9.4,9.4c-5.5,0-9.4-3.9-9.4-9.4C359.4,303.2,363.4,299.3,368.9,299.3z M495.5,463.6h-7.9
		H359.4h-7.9v-7.9v-96h143.9v96V463.6z M488.4,299.3c5.5,0,9.4,3.9,9.4,9.4c0,5.5-3.9,9.4-9.4,9.4c-5.5,0-9.4-3.9-9.4-9.4
		C479,303.2,483.7,299.3,488.4,299.3z"/>
	<path id="XMLID_26_" class="st0" d="M455.4,112.1V8.3h-71.6v103.8h-23.6L328,167.9h184l-32.2-55.8
		C479.8,112.1,455.4,112.1,455.4,112.1z M456.9,149.8c-5.5,0-9.4-3.9-9.4-9.4s3.9-9.4,9.4-9.4c5.5,0,9.4,3.9,9.4,9.4
		C466.4,145.9,461.7,149.8,456.9,149.8z"/>
	<path id="XMLID_27_" class="st0" d="M207.6,248.1h32.2c4.7,0,7.9-3.9,7.9-7.9c0-3.9-3.9-7.9-7.9-7.9h-40.1c-4.7,0-7.9,3.9-7.9,7.9
		v31.5h15.7V248.1z"/>
	<path id="XMLID_28_" class="st0" d="M128.2,271.7v-31.5c0-4.7-3.9-7.9-7.9-7.9H80.2c-4.7,0-7.9,3.9-7.9,7.9c0,3.9,3.9,7.9,7.9,7.9
		h32.2v23.6H128.2z"/>
	<path id="XMLID_29_" class="st0" d="M167.5,271.7v-48c4.7,0,7.9-3.9,7.9-7.9c0-3.9-3.9-7.9-7.9-7.9v-15.7c0-4.7-3.9-7.9-7.9-7.9
		c-3.9,0-7.9,3.9-7.9,7.9V208c-4.7,0-7.9,3.9-7.9,7.9c0,3.9,3.9,7.9,7.9,7.9v48H167.5z"/>
	<path id="XMLID_32_" class="st0" d="M295.7,104.2H125.8c11-9.4,18.1-22.8,18.1-38.5c0-27.5-22.8-50.3-50.3-50.3
		S43.3,38.1,43.3,65.7c0,15.7,7.1,29.1,18.1,38.5H16.5v15.7h279.2V104.2z M59.8,65.7c0-18.1,14.9-33.8,33.8-33.8
		s33.8,14.9,33.8,33.8s-14.9,33.8-33.8,33.8S59.8,84.5,59.8,65.7z"/>
	<circle id="XMLID_33_" class="st0" cx="93.6" cy="65.7" r="25.2"/>
	<path id="XMLID_34_" class="st0" d="M171.5,96.3h111.7c2.4,0,3.9-1.6,3.9-3.9c0-2.4-1.6-3.9-3.9-3.9H171.5c-2.4,0-3.9,1.6-3.9,3.9
		C167.5,94.8,169.9,96.3,171.5,96.3z"/>
	<path id="XMLID_35_" class="st0" d="M180.1,80.6h96c2.4,0,3.9-1.6,3.9-3.9c0-2.4-1.6-3.9-3.9-3.9h-96c-2.4,0-3.9,1.6-3.9,3.9
		C176.2,79,177.7,80.6,180.1,80.6z"/>
	<path id="XMLID_36_" class="st0" d="M180.1,64.1h96c2.4,0,3.9-1.6,3.9-3.9s-1.6-3.9-3.9-3.9h-96c-2.4,0-3.9,1.6-3.9,3.9
		S177.7,64.1,180.1,64.1z"/>
	<path id="XMLID_37_" class="st0" d="M200.6,48.4h49.5c7.9,0,12.6-11,12.6-18.1c0-5.5-2.4-13.4-6.3-13.4h-62.1
		c-3.9,0-6.3,7.9-6.3,13.4C188.8,37.4,193.5,48.4,200.6,48.4z"/>
</g>
</svg>
